<svg width="448" height="448" viewBox="0 0 448 448" fill="none" xmlns="http://www.w3.org/2000/svg">
<path d="M433 0H15C6.71573 0 0 6.71115 0 14.9954L1.90735e-06 32V433C1.90735e-06 441.284 6.71115 448 14.9954 448H32H416H433.005C441.289 448 448 441.284 448 433V32V14.9954C448 6.71115 441.284 0 433 0Z" fill="url(#paint0_linear_807_121)"/>
<path d="M335.5 223.889C335.5 278.5 285.685 322.778 224.25 322.778C206.062 322.84 188.091 318.832 171.654 311.047L113 322.778L130.244 276.795C119.329 261.491 113 243.345 113 223.889C113 169.278 162.815 125 224.25 125C285.685 125 335.5 169.278 335.5 223.889Z" stroke="white" stroke-width="14" stroke-linecap="round"/>
<path d="M183.283 197.638L182.286 234.303H172.928L171.905 197.638H183.283ZM177.607 250.667C175.919 250.667 174.47 250.07 173.26 248.877C172.05 247.667 171.453 246.218 171.47 244.53C171.453 242.86 172.05 241.428 173.26 240.235C174.47 239.042 175.919 238.445 177.607 238.445C179.226 238.445 180.649 239.042 181.876 240.235C183.104 241.428 183.726 242.86 183.743 244.53C183.726 245.655 183.428 246.687 182.848 247.624C182.286 248.545 181.544 249.286 180.624 249.849C179.703 250.394 178.697 250.667 177.607 250.667ZM216.643 250.667C214.955 250.667 213.506 250.07 212.296 248.877C211.103 247.667 210.506 246.218 210.506 244.53C210.506 242.86 211.103 241.428 212.296 240.235C213.506 239.042 214.955 238.445 216.643 238.445C218.279 238.445 219.711 239.042 220.938 240.235C222.165 241.428 222.779 242.86 222.779 244.53C222.779 245.655 222.489 246.687 221.91 247.624C221.347 248.545 220.606 249.286 219.685 249.849C218.765 250.394 217.751 250.667 216.643 250.667ZM255.283 234.303V233.434C255.3 230.451 255.564 228.073 256.075 226.3C256.604 224.528 257.371 223.096 258.376 222.005C259.382 220.914 260.592 219.925 262.007 219.039C263.064 218.357 264.01 217.65 264.845 216.917C265.68 216.184 266.345 215.374 266.839 214.488C267.334 213.584 267.581 212.579 267.581 211.471C267.581 210.295 267.3 209.263 266.737 208.377C266.175 207.491 265.416 206.809 264.462 206.332C263.524 205.854 262.484 205.616 261.342 205.616C260.234 205.616 259.186 205.863 258.197 206.357C257.209 206.834 256.399 207.55 255.768 208.505C255.138 209.442 254.797 210.61 254.746 212.008H244.314C244.399 208.599 245.217 205.786 246.768 203.57C248.32 201.337 250.374 199.675 252.93 198.584C255.487 197.476 258.308 196.922 261.393 196.922C264.786 196.922 267.786 197.485 270.393 198.61C273.001 199.718 275.047 201.329 276.53 203.442C278.013 205.556 278.754 208.104 278.754 211.087C278.754 213.082 278.422 214.854 277.757 216.405C277.109 217.939 276.197 219.303 275.021 220.496C273.845 221.672 272.456 222.738 270.854 223.692C269.507 224.493 268.399 225.329 267.53 226.198C266.678 227.067 266.038 228.073 265.612 229.215C265.203 230.357 264.99 231.763 264.973 233.434V234.303H255.283ZM260.345 250.667C258.641 250.667 257.183 250.07 255.973 248.877C254.78 247.667 254.192 246.218 254.209 244.53C254.192 242.86 254.78 241.428 255.973 240.235C257.183 239.042 258.641 238.445 260.345 238.445C261.964 238.445 263.388 239.042 264.615 240.235C265.842 241.428 266.464 242.86 266.482 244.53C266.464 245.655 266.166 246.687 265.587 247.624C265.024 248.545 264.283 249.286 263.362 249.849C262.442 250.394 261.436 250.667 260.345 250.667Z" fill="white"/>
<defs>
<linearGradient id="paint0_linear_807_121" x1="-1.77165e-07" y1="-1.77165e-07" x2="448" y2="448" gradientUnits="userSpaceOnUse">
<stop stop-color="#475569"/>
<stop offset="1" stop-color="#6366F1"/>
</linearGradient>
</defs>
</svg>
