<svg width="448" height="448" viewBox="0 0 448 448" fill="none" xmlns="http://www.w3.org/2000/svg">
<path d="M433 0H15C6.71573 0 0 6.71115 0 14.9954L1.90735e-06 32V433C1.90735e-06 441.284 6.71115 448 14.9954 448H32H416H433.005C441.289 448 448 441.284 448 433V32V14.9954C448 6.71115 441.284 0 433 0Z" fill="url(#paint0_linear_805_105)"/>
<path d="M335.5 223.889C335.5 278.5 285.685 322.778 224.25 322.778C206.062 322.84 188.091 318.832 171.654 311.047L113 322.778L130.244 276.795C119.329 261.491 113 243.345 113 223.889C113 169.278 162.815 125 224.25 125C285.685 125 335.5 169.278 335.5 223.889Z" stroke="white" stroke-width="14" stroke-linecap="round"/>
<path d="M171.048 234.301V233.432C171.065 230.449 171.33 228.071 171.841 226.298C172.369 224.526 173.136 223.094 174.142 222.003C175.148 220.912 176.358 219.923 177.773 219.037C178.83 218.355 179.776 217.648 180.611 216.915C181.446 216.182 182.111 215.372 182.605 214.486C183.099 213.582 183.347 212.577 183.347 211.469C183.347 210.293 183.065 209.261 182.503 208.375C181.94 207.489 181.182 206.807 180.227 206.33C179.29 205.852 178.25 205.614 177.108 205.614C176 205.614 174.952 205.861 173.963 206.355C172.974 206.832 172.165 207.548 171.534 208.503C170.903 209.44 170.563 210.608 170.511 212.006H160.08C160.165 208.597 160.983 205.784 162.534 203.568C164.085 201.335 166.139 199.673 168.696 198.582C171.253 197.474 174.074 196.92 177.159 196.92C180.551 196.92 183.551 197.483 186.159 198.608C188.767 199.716 190.813 201.327 192.295 203.44C193.778 205.554 194.52 208.102 194.52 211.085C194.52 213.08 194.188 214.852 193.523 216.403C192.875 217.937 191.963 219.301 190.787 220.494C189.611 221.67 188.222 222.736 186.619 223.69C185.273 224.491 184.165 225.327 183.295 226.196C182.443 227.065 181.804 228.071 181.378 229.213C180.969 230.355 180.756 231.761 180.739 233.432V234.301H171.048ZM176.111 250.665C174.406 250.665 172.949 250.068 171.739 248.875C170.545 247.665 169.957 246.216 169.974 244.528C169.957 242.858 170.545 241.426 171.739 240.233C172.949 239.04 174.406 238.443 176.111 238.443C177.73 238.443 179.153 239.04 180.381 240.233C181.608 241.426 182.23 242.858 182.247 244.528C182.23 245.653 181.932 246.685 181.352 247.622C180.79 248.543 180.048 249.284 179.128 249.847C178.207 250.392 177.202 250.665 176.111 250.665ZM225.221 250.665C223.533 250.665 222.085 250.068 220.874 248.875C219.681 247.665 219.085 246.216 219.085 244.528C219.085 242.858 219.681 241.426 220.874 240.233C222.085 239.04 223.533 238.443 225.221 238.443C226.857 238.443 228.289 239.04 229.516 240.233C230.744 241.426 231.357 242.858 231.357 244.528C231.357 245.653 231.067 246.685 230.488 247.622C229.925 248.543 229.184 249.284 228.263 249.847C227.343 250.392 226.329 250.665 225.221 250.665ZM263.861 234.301V233.432C263.878 230.449 264.142 228.071 264.653 226.298C265.182 224.526 265.949 223.094 266.955 222.003C267.96 220.912 269.17 219.923 270.585 219.037C271.642 218.355 272.588 217.648 273.423 216.915C274.259 216.182 274.923 215.372 275.418 214.486C275.912 213.582 276.159 212.577 276.159 211.469C276.159 210.293 275.878 209.261 275.315 208.375C274.753 207.489 273.994 206.807 273.04 206.33C272.102 205.852 271.063 205.614 269.92 205.614C268.813 205.614 267.764 205.861 266.776 206.355C265.787 206.832 264.977 207.548 264.347 208.503C263.716 209.44 263.375 210.608 263.324 212.006H252.892C252.977 208.597 253.795 205.784 255.347 203.568C256.898 201.335 258.952 199.673 261.509 198.582C264.065 197.474 266.886 196.92 269.972 196.92C273.364 196.92 276.364 197.483 278.972 198.608C281.58 199.716 283.625 201.327 285.108 203.44C286.591 205.554 287.332 208.102 287.332 211.085C287.332 213.08 287 214.852 286.335 216.403C285.688 217.937 284.776 219.301 283.599 220.494C282.423 221.67 281.034 222.736 279.432 223.69C278.085 224.491 276.977 225.327 276.108 226.196C275.256 227.065 274.616 228.071 274.19 229.213C273.781 230.355 273.568 231.761 273.551 233.432V234.301H263.861ZM268.923 250.665C267.219 250.665 265.761 250.068 264.551 248.875C263.358 247.665 262.77 246.216 262.787 244.528C262.77 242.858 263.358 241.426 264.551 240.233C265.761 239.04 267.219 238.443 268.923 238.443C270.543 238.443 271.966 239.04 273.193 240.233C274.42 241.426 275.043 242.858 275.06 244.528C275.043 245.653 274.744 246.685 274.165 247.622C273.602 248.543 272.861 249.284 271.94 249.847C271.02 250.392 270.014 250.665 268.923 250.665Z" fill="white"/>
<defs>
<linearGradient id="paint0_linear_805_105" x1="-1.77165e-07" y1="-1.77165e-07" x2="448" y2="448" gradientUnits="userSpaceOnUse">
<stop stop-color="#475569"/>
<stop offset="1" stop-color="#6366F1"/>
</linearGradient>
</defs>
</svg>
