<svg width="512" height="512" viewBox="0 0 512 512" fill="none" xmlns="http://www.w3.org/2000/svg">
<path d="M475.429 0.0161199H15C6.71576 0.0161199 3.36145e-05 6.72749 3.2756e-05 15.0118L3.16075e-05 36.5864V475.43L2.0505e-05 497.004C1.22066e-05 505.289 6.71575 512 15 512H497C505.284 512 512 505.289 512 497.004V475.43V15.0148C512 6.72474 505.28 0.00623241 496.99 0.0104648C490.944 0.0135513 483.491 0.0161199 475.429 0.0161199Z" fill="url(#paint0_linear_792_26)"/>
<path d="M209.501 255.424H209.616M255.5 255.424H255.615M301.499 255.424H301.614M358.998 255.424C358.998 306.23 312.654 347.422 255.5 347.422C238.579 347.48 221.86 343.751 206.568 336.509L152.002 347.422L168.044 304.643C157.89 290.406 152.002 273.525 152.002 255.424C152.002 204.618 198.346 163.426 255.5 163.426C312.654 163.426 358.998 204.618 358.998 255.424Z" stroke="white" stroke-width="17" stroke-linecap="round"/>
<defs>
<linearGradient id="paint0_linear_792_26" x1="3.55067e-05" y1="0.0178267" x2="511.984" y2="512.018" gradientUnits="userSpaceOnUse">
<stop stop-color="#475569"/>
<stop offset="1" stop-color="#6366F1"/>
</linearGradient>
</defs>
</svg>
