<svg width="448" height="448" viewBox="0 0 448 448" fill="none" xmlns="http://www.w3.org/2000/svg">
<path d="M416 0.0141049H15C6.71576 0.0141049 2.9254e-05 6.72525 2.84765e-05 15.0095L2.76566e-05 32.0131V416.001L1.97307e-05 433.005C1.2215e-05 441.289 6.71574 448 15 448H433C441.284 448 448 441.289 448 433.005V416.001V15.0148C448 6.72474 441.28 0.00623681 432.99 0.0100693C428.066 0.0123454 422.242 0.0141049 416 0.0141049Z" fill="url(#paint0_linear_809_3)"/>
<path d="M145.944 224.111H146.138M223.5 224.111H223.694M301.056 224.111H301.249M398 224.111C398 309.771 319.863 379.222 223.5 379.222C194.972 379.319 166.783 373.032 141 360.822L49 379.222L76.0475 307.096C58.9271 283.092 49 254.629 49 224.111C49 138.451 127.137 69 223.5 69C319.863 69 398 138.451 398 224.111Z" stroke="white" stroke-width="28" stroke-linecap="round"/>
<defs>
<linearGradient id="paint0_linear_809_3" x1="3.10683e-05" y1="0.0155984" x2="447.986" y2="448.015" gradientUnits="userSpaceOnUse">
<stop stop-color="#475569"/>
<stop offset="1" stop-color="#6366F1"/>
</linearGradient>
</defs>
</svg>
