<svg width="448" height="448" viewBox="0 0 448 448" fill="none" xmlns="http://www.w3.org/2000/svg">
<path d="M433 0H15C6.71573 0 0 6.71115 0 14.9954L1.90735e-06 32V433C1.90735e-06 441.284 6.71115 448 14.9954 448H32H416H433.005C441.289 448 448 441.284 448 433V32V14.9954C448 6.71115 441.284 0 433 0Z" fill="url(#paint0_linear_803_103)"/>
<path d="M388 224.222C388 304.973 314.341 370.444 223.5 370.444C196.607 370.536 170.034 364.609 145.728 353.099L59 370.444L84.4975 302.451C68.3582 279.823 59 252.991 59 224.222C59 143.471 132.659 78 223.5 78C314.341 78 388 143.471 388 224.222Z" stroke="white" stroke-width="14" stroke-linecap="round"/>
<path d="M266.453 203.43H182.636C174.921 203.43 168.667 209.684 168.667 217.399V273.277C168.667 280.992 174.921 287.246 182.636 287.246H266.453C274.168 287.246 280.422 280.992 280.422 273.277V217.399C280.422 209.684 274.168 203.43 266.453 203.43Z" stroke="white" stroke-width="4"/>
<path d="M196.605 203.463V175.524C196.605 156.898 252.483 156.898 252.483 175.524V203.463" stroke="white" stroke-width="4" stroke-linecap="round"/>
<path d="M224.545 261.661C230.974 261.661 236.186 256.449 236.186 250.02C236.186 243.591 230.974 238.379 224.545 238.379C218.115 238.379 212.904 243.591 212.904 250.02C212.904 256.449 218.115 261.661 224.545 261.661Z" fill="white"/>
<path d="M226.873 250.016H222.216C219.645 250.016 217.56 252.1 217.56 254.672V268.642C217.56 271.213 219.645 273.298 222.216 273.298H226.873C229.444 273.298 231.529 271.213 231.529 268.642V254.672C231.529 252.1 229.444 250.016 226.873 250.016Z" fill="white"/>
<defs>
<linearGradient id="paint0_linear_803_103" x1="-1.77165e-07" y1="-1.77165e-07" x2="448" y2="448" gradientUnits="userSpaceOnUse">
<stop stop-color="#475569"/>
<stop offset="1" stop-color="#6366F1"/>
</linearGradient>
</defs>
</svg>
