<svg width="448" height="448" viewBox="0 0 448 448" fill="none" xmlns="http://www.w3.org/2000/svg">
<path d="M433 0H15C6.71573 0 0 6.71115 0 14.9954L1.90735e-06 32V433C1.90735e-06 441.284 6.71115 448 14.9954 448H32H416H433.005C441.289 448 448 441.284 448 433V32V14.9954C448 6.71115 441.284 0 433 0Z" fill="url(#paint0_linear_803_103)"/>
<path d="M335.5 223.889C335.5 278.5 285.685 322.778 224.25 322.778C206.062 322.84 188.091 318.832 171.654 311.047L113 322.778L130.244 276.795C119.329 261.491 113 243.345 113 223.889C113 169.278 162.815 125 224.25 125C285.685 125 335.5 169.278 335.5 223.889Z" stroke="white" stroke-width="14" stroke-linecap="round"/>
<path d="M253.299 209.848H196.614C191.396 209.848 187.167 214.077 187.167 219.295V257.085C187.167 262.302 191.396 266.532 196.614 266.532H253.299C258.516 266.532 262.746 262.302 262.746 257.085V219.295C262.746 214.077 258.516 209.848 253.299 209.848Z" stroke="white" stroke-width="4"/>
<path d="M206.062 209.85V190.955C206.062 178.359 243.851 178.359 243.851 190.955V209.85" stroke="white" stroke-width="4" stroke-linecap="round"/>
<path d="M224.956 249.218C229.304 249.218 232.829 245.694 232.829 241.346C232.829 236.997 229.304 233.473 224.956 233.473C220.608 233.473 217.083 236.997 217.083 241.346C217.083 245.694 220.608 249.218 224.956 249.218Z" fill="white"/>
<path d="M226.531 241.34H223.382C221.643 241.34 220.233 242.75 220.233 244.489V253.936C220.233 255.676 221.643 257.086 223.382 257.086H226.531C228.27 257.086 229.68 255.676 229.68 253.936V244.489C229.68 242.75 228.27 241.34 226.531 241.34Z" fill="white"/>
<defs>
<linearGradient id="paint0_linear_803_103" x1="-1.77165e-07" y1="-1.77165e-07" x2="448" y2="448" gradientUnits="userSpaceOnUse">
<stop stop-color="#475569"/>
<stop offset="1" stop-color="#6366F1"/>
</linearGradient>
</defs>
</svg>
