<svg width="448" height="448" viewBox="0 0 448 448" fill="none" xmlns="http://www.w3.org/2000/svg">
<path d="M433 0H15C6.71573 0 0 6.71115 0 14.9954L1.90735e-06 32V433C1.90735e-06 441.284 6.71115 448 14.9954 448H32H416H433.005C441.289 448 448 441.284 448 433V32V14.9954C448 6.71115 441.284 0 433 0Z" fill="url(#paint0_linear_918_2)"/>
<path d="M388 224.222C388 304.973 314.341 370.444 223.5 370.444C196.607 370.536 170.034 364.609 145.728 353.099L59 370.444L84.4975 302.451C68.3582 279.823 59 252.991 59 224.222C59 143.471 132.659 78 223.5 78C314.341 78 388 143.471 388 224.222Z" stroke="white" stroke-width="18.5" stroke-linecap="round"/>
<path d="M265.786 202.875H181.969C174.254 202.875 168 209.129 168 216.844V272.722C168 280.437 174.254 286.692 181.969 286.692H265.786C273.501 286.692 279.756 280.437 279.756 272.722V216.844C279.756 209.129 273.501 202.875 265.786 202.875Z" stroke="white" stroke-width="10.3"/>
<path d="M195.938 202.908V174.969C195.938 156.344 251.816 156.344 251.816 174.969V202.908" stroke="white" stroke-width="10.3" stroke-linecap="round"/>
<path d="M223.878 261.107C230.307 261.107 235.519 255.895 235.519 249.465C235.519 243.036 230.307 237.824 223.878 237.824C217.449 237.824 212.237 243.036 212.237 249.465C212.237 255.895 217.449 261.107 223.878 261.107Z" fill="white"/>
<path d="M226.206 249.461H221.549C218.978 249.461 216.893 251.546 216.893 254.117V268.087C216.893 270.659 218.978 272.743 221.549 272.743H226.206C228.777 272.743 230.862 270.659 230.862 268.087V254.117C230.862 251.546 228.777 249.461 226.206 249.461Z" fill="white"/>
<defs>
<linearGradient id="paint0_linear_918_2" x1="-1.77165e-07" y1="-1.77165e-07" x2="448" y2="448" gradientUnits="userSpaceOnUse">
<stop stop-color="#475569"/>
<stop offset="1" stop-color="#6366F1"/>
</linearGradient>
</defs>
</svg>
